<svg width="397" height="327" viewBox="0 0 397 327" fill="none" xmlns="http://www.w3.org/2000/svg">
<path d="M160.892 166.229C147.936 179.184 147.936 200.191 160.892 213.147C173.848 226.103 194.855 226.103 207.811 213.147C220.767 200.191 220.767 179.184 207.811 166.229C194.855 153.273 173.848 153.273 160.892 166.229ZM195.965 201.333C189.549 207.749 179.154 207.749 172.737 201.333C166.321 194.917 166.321 184.521 172.737 178.105C179.154 171.688 189.549 171.688 195.965 178.105C202.382 184.49 202.382 194.917 195.965 201.333ZM207.255 2.98448L186.927 23.3129C182.948 27.2922 182.948 33.8318 186.927 37.8111L266.297 117.181C270.277 121.161 276.816 121.161 280.795 117.181L301.124 96.8529C305.103 92.8736 305.103 86.3339 301.124 82.3546L221.723 2.98448C217.744 -0.994826 211.235 -0.994826 207.255 2.98448ZM64.8334 262.75C68.4425 259.141 68.4425 253.249 64.8334 249.64L54.4995 239.306C50.8904 235.697 44.9985 235.697 41.3894 239.306L20.043 260.652L20.0122 260.683L14.1512 254.822C10.9122 251.583 5.63735 251.583 2.42923 254.822C-0.809742 258.061 -0.809742 263.336 2.42923 266.544L37.5952 301.71C40.8341 304.949 46.109 304.949 49.3172 301.71C52.5253 298.471 52.5561 293.196 49.3172 289.988L43.4562 284.127L43.487 284.096L64.8334 262.75Z" fill="#5ED2E3"/>
<path d="M172.367 61.3472L127.207 106.508C123.197 110.518 123.197 117.119 127.207 121.129L155.093 149.015C174.804 134.825 202.443 136.584 220.181 154.321L242.761 131.741C246.771 127.731 246.771 121.129 242.761 117.119L186.989 61.3472C182.979 57.3062 176.377 57.3062 172.367 61.3472ZM143.371 160.768L126.898 144.296C123.042 140.44 116.719 140.44 112.863 144.296L54.7772 202.412C50.9213 206.268 50.9213 212.592 54.7772 216.448L87.6913 249.362C91.5472 253.218 97.8709 253.218 101.727 249.362L139.083 211.944C131.186 195.626 132.605 175.914 143.371 160.768Z" fill="#01ADD8"/>
<path d="M296.5 131.653C259.755 131.653 230.861 148.927 230.861 170.597V282.403C230.861 304.074 260.383 321.347 296.186 321.347C332.303 321.347 361.825 303.76 361.825 282.403V170.597C362.139 148.613 333.245 131.653 296.5 131.653ZM296.5 145.786C326.65 145.786 348.006 158.977 348.006 170.597C348.006 182.531 326.964 195.408 296.5 195.408C266.036 195.408 244.994 182.217 244.994 170.597C244.994 158.663 266.35 145.786 296.5 145.786ZM296.5 307.528C266.978 307.528 245.308 294.338 245.308 282.717V270.469C257.242 279.263 275.458 284.602 296.5 284.602C317.542 284.602 336.072 278.949 348.006 270.469V282.717C348.006 294.338 326.022 307.528 296.5 307.528ZM296.5 270.469C266.35 270.469 245.308 257.906 245.308 246.6V232.153C257.556 240.947 276.714 246.286 296.5 246.286C317.228 246.286 335.758 240.947 348.006 232.153V246.6C348.006 257.906 326.65 270.469 296.5 270.469ZM339.841 220.533C330.105 227.756 314.088 232.153 296.5 232.153C279.227 232.153 262.895 227.756 253.159 220.533C249.391 218.021 245.308 213.624 245.308 208.285V195.094C257.242 203.888 275.772 209.541 296.814 209.541C317.856 209.541 336.386 203.888 348.32 195.094V208.285C348.006 213.31 343.609 217.706 339.841 220.533Z" fill="#01ADD8"/>
</svg>
